<mxfile host="Electron" modified="2024-06-04T01:06:42.045Z" agent="Mozilla/5.0 (Windows NT 10.0; Win64; x64) AppleWebKit/537.36 (KHTML, like Gecko) draw.io/24.4.13 Chrome/124.0.6367.207 Electron/30.0.6 Safari/537.36" etag="QMhDa3dtZqqIVn0Qvydn" version="24.4.13" type="device">
  <diagram name="Страница — 1" id="b9E4jKTHstUitx4F5HRz">
    <mxGraphModel dx="523" dy="370" grid="1" gridSize="10" guides="1" tooltips="1" connect="1" arrows="1" fold="1" page="1" pageScale="1" pageWidth="827" pageHeight="1169" math="0" shadow="0">
      <root>
        <mxCell id="0" />
        <mxCell id="1" parent="0" />
        <mxCell id="BjfkUeQ2_LX6uIywMUik-1" value="Начало" style="rounded=1;whiteSpace=wrap;html=1;arcSize=50;" vertex="1" parent="1">
          <mxGeometry x="354" y="35" width="120" height="20" as="geometry" />
        </mxCell>
        <mxCell id="BjfkUeQ2_LX6uIywMUik-2" value="" style="endArrow=none;dashed=1;html=1;rounded=0;exitX=0;exitY=0.5;exitDx=0;exitDy=0;entryX=1;entryY=0.5;entryDx=0;entryDy=0;exitPerimeter=0;" edge="1" source="BjfkUeQ2_LX6uIywMUik-3" target="BjfkUeQ2_LX6uIywMUik-1" parent="1">
          <mxGeometry width="50" height="50" relative="1" as="geometry">
            <mxPoint x="540" y="25" as="sourcePoint" />
            <mxPoint x="520" y="25" as="targetPoint" />
          </mxGeometry>
        </mxCell>
        <mxCell id="BjfkUeQ2_LX6uIywMUik-3" value="    Входные данные:&#xa;     int[,] mas&#xa;    Выходные данные:&#xa;     int result" style="strokeWidth=2;shape=mxgraph.flowchart.annotation_1;align=left;pointerEvents=1;recursiveResize=1;autosize=0;verticalAlign=middle;horizontal=1;" vertex="1" parent="1">
          <mxGeometry x="530" y="10" width="50" height="70" as="geometry" />
        </mxCell>
        <mxCell id="BjfkUeQ2_LX6uIywMUik-4" value="result =&amp;nbsp;(int)Math.Sqrt(mas.Length)" style="rounded=0;whiteSpace=wrap;html=1;" vertex="1" parent="1">
          <mxGeometry x="314" y="60" width="200" height="20" as="geometry" />
        </mxCell>
        <mxCell id="BjfkUeQ2_LX6uIywMUik-5" value="" style="endArrow=none;html=1;rounded=0;exitX=0.5;exitY=0;exitDx=0;exitDy=0;entryX=0.5;entryY=1;entryDx=0;entryDy=0;" edge="1" parent="1" source="BjfkUeQ2_LX6uIywMUik-4" target="BjfkUeQ2_LX6uIywMUik-1">
          <mxGeometry width="50" height="50" relative="1" as="geometry">
            <mxPoint x="380" y="210" as="sourcePoint" />
            <mxPoint x="430" y="70" as="targetPoint" />
          </mxGeometry>
        </mxCell>
        <mxCell id="BjfkUeQ2_LX6uIywMUik-6" value="" style="endArrow=none;html=1;rounded=0;entryX=0.5;entryY=1;entryDx=0;entryDy=0;exitX=0.5;exitY=0;exitDx=0;exitDy=0;" edge="1" parent="1" source="BjfkUeQ2_LX6uIywMUik-7" target="BjfkUeQ2_LX6uIywMUik-4">
          <mxGeometry width="50" height="50" relative="1" as="geometry">
            <mxPoint x="410" y="100" as="sourcePoint" />
            <mxPoint x="480" y="60" as="targetPoint" />
          </mxGeometry>
        </mxCell>
        <mxCell id="BjfkUeQ2_LX6uIywMUik-7" value="return result" style="rounded=0;whiteSpace=wrap;html=1;" vertex="1" parent="1">
          <mxGeometry x="377" y="86" width="74" height="20" as="geometry" />
        </mxCell>
        <mxCell id="BjfkUeQ2_LX6uIywMUik-8" value="Конец" style="rounded=1;whiteSpace=wrap;html=1;arcSize=50;" vertex="1" parent="1">
          <mxGeometry x="354" y="113" width="120" height="20" as="geometry" />
        </mxCell>
        <mxCell id="BjfkUeQ2_LX6uIywMUik-9" value="" style="endArrow=none;html=1;rounded=0;entryX=0.5;entryY=0;entryDx=0;entryDy=0;exitX=0.5;exitY=1;exitDx=0;exitDy=0;" edge="1" target="BjfkUeQ2_LX6uIywMUik-8" parent="1" source="BjfkUeQ2_LX6uIywMUik-7">
          <mxGeometry width="50" height="50" relative="1" as="geometry">
            <mxPoint x="454" y="200" as="sourcePoint" />
            <mxPoint x="484" y="240" as="targetPoint" />
          </mxGeometry>
        </mxCell>
      </root>
    </mxGraphModel>
  </diagram>
</mxfile>
